#!OML:ASF C:\Vicon Data\Big\jianyuan-12\jianyuan\Session 1\Capture.male.ASF
:FULLY-SPECIFIED
:DEGREES
139
root -10.356690 16.754006 -13.160330 4.521179 -25.660409 8.156501
lowerback -11.850398 0.747677 -6.137481 
upperback 1.685286 2.107069 -2.134128 
thorax 8.344522 0.795694 1.578457 
lowerneck -1.370354 -7.842412 -5.490772 
upperneck 8.215976 -10.919794 8.313246 
head 3.429948 -5.272598 2.968671 
rclavicle 0.000000 0.000000 
rhumerus -35.209333 -27.538384 -78.849972 
rradius 35.500401 
rwrist 36.422133 
rhand -21.658337 -3.799878 
rfingers 0.000000 
rthumb 4.738725 -33.726844 
lclavicle 0.000000 0.000000 
lhumerus -53.266137 44.694264 55.322975 
lradius 24.975165 
lwrist -60.689798 
lhand -10.301818 3.246465 
lfingers 0.000000 
lthumb 15.693018 32.630077 
rfemur 6.138842 0.937571 16.659429 
rtibia 27.383309 
rfoot -14.964438 1.864789 
rtoes -16.043691 
lfemur -30.395169 -3.062961 -25.850712 
ltibia 24.100030 
lfoot -8.348646 3.805903 
ltoes -8.540231 
140
root -10.371702 16.756827 -13.098229 4.457568 -25.669653 8.419150
lowerback -11.936885 0.703594 -6.383287 
upperback 1.635094 2.098867 -2.225487 
thorax 8.337182 0.784335 1.618739 
lowerneck -1.308638 -7.844183 -5.500181 
upperneck 8.238671 -10.931702 8.392353 
head 3.432227 -5.276718 2.995369 
rclavicle 0.000000 0.000000 
rhumerus -35.478351 -27.731491 -78.696035 
rradius 35.446111 
rwrist 36.691151 
rhand -21.681682 -3.912961 
rfingers 0.000000 
rthumb 4.716132 -33.840436 
lclavicle 0.000000 0.000000 
lhumerus -53.235193 44.776755 55.199434 
lradius 24.880061 
lwrist -61.074445 
lhand -10.335112 3.328416 
lfingers 0.000000 
lthumb 15.660977 32.714527 
rfemur 5.614962 0.454961 16.184849 
rtibia 28.547512 
rfoot -14.348220 2.044414 
rtoes -15.807106 
lfemur -30.290900 -3.008218 -26.201438 
ltibia 24.258589 
lfoot -8.483155 3.605777 
ltoes -8.623427 
141
root -10.387135 16.760019 -13.037243 4.447233 -25.666800 8.535319
lowerback -11.981911 0.665564 -6.469080 
upperback 1.580140 2.069214 -2.300536 
thorax 8.306188 0.770394 1.581995 
lowerneck -1.287097 -7.839704 -5.445128 
upperneck 8.286423 -10.932771 8.410432 
head 3.441080 -5.274312 2.992381 
rclavicle 0.000000 0.000000 
rhumerus -35.726201 -28.097733 -78.485673 
rradius 35.256983 
rwrist 37.124390 
rhand -21.726127 -3.994283 
rfingers 0.000000 
rthumb 4.673186 -33.922711 
lclavicle 0.000000 0.000000 
lhumerus -53.031411 44.670478 55.310164 
lradius 24.819063 
lwrist -61.198099 
lhand -10.384145 3.460560 
lfingers 0.000000 
lthumb 15.613746 32.850413 
rfemur 5.058115 0.064185 15.907739 
rtibia 29.750568 
rfoot -13.718547 2.045700 
rtoes -15.232524 
lfemur -30.187305 -2.956633 -26.394616 
ltibia 24.423695 
lfoot -8.658187 3.448467 
ltoes -8.734900 
142
root -10.404587 16.761920 -12.974873 4.358685 -25.670894 8.719857
lowerback -11.996407 0.584883 -6.661926 
upperback 1.542387 1.994294 -2.344274 
thorax 8.275788 0.728410 1.629479 
lowerneck -1.271074 -7.808494 -5.463196 
upperneck 8.345625 -10.892960 8.394987 
head 3.453442 -5.254985 2.992458 
rclavicle 0.000000 0.000000 
rhumerus -35.951328 -28.363564 -78.272751 
rradius 35.099214 
rwrist 37.402539 
rhand -21.754880 -4.003390 
rfingers 0.000000 
rthumb 4.645418 -33.932435 
lclavicle 0.000000 0.000000 
lhumerus -52.988664 44.722224 55.294674 
lradius 24.798470 
lwrist -61.287157 
lhand -10.410597 3.484687 
lfingers 0.000000 
lthumb 15.588244 32.876548 
rfemur 4.547957 -0.358569 15.548338 
rtibia 30.993011 
rfoot -13.087410 2.089861 
rtoes -14.800992 
lfemur -30.005768 -2.870837 -26.656332 
ltibia 24.563791 
lfoot -8.851104 3.274799 
ltoes -8.919981 
143
root -10.422510 16.763067 -12.910934 4.237400 -25.663414 8.927332
lowerback -11.992166 0.487818 -6.875756 
upperback 1.512780 1.898813 -2.380888 
thorax 8.244305 0.675242 1.692136 
lowerneck -1.283337 -7.767823 -5.548600 
upperneck 8.440786 -10.842176 8.411447 
head 3.485815 -5.229705 3.011277 
rclavicle 0.000000 0.000000 
rhumerus -36.175758 -28.552771 -78.089424 
rradius 34.997177 
rwrist 37.489031 
rhand -21.750391 -3.976481 
rfingers 0.000000 
rthumb 4.649772 -33.905441 
lclavicle 0.000000 0.000000 
lhumerus -53.025854 44.872819 55.182080 
lradius 24.766680 
lwrist -61.323246 
lhand -10.412754 3.441467 
lfingers 0.000000 
lthumb 15.586126 32.833487 
rfemur 4.048233 -0.813675 15.149337 
rtibia 32.267848 
rfoot -12.473382 2.188133 
rtoes -14.455954 
lfemur -29.780117 -2.800878 -26.936920 
ltibia 24.681441 
lfoot -9.060448 3.114406 
ltoes -9.085742 
144
root -10.438714 16.765148 -12.846493 4.159309 -25.629128 9.052795
lowerback -11.978398 0.423232 -6.954938 
upperback 1.483000 1.827680 -2.442899 
thorax 8.210040 0.640956 1.656795 
lowerneck -1.331895 -7.748669 -5.608325 
upperneck 8.560610 -10.826690 8.484876 
head 3.535834 -5.217431 3.039305 
rclavicle 0.000000 0.000000 
rhumerus -36.417062 -28.817656 -77.930355 
rradius 34.896960 
rwrist 37.587347 
rhand -21.735223 -3.981702 
rfingers 0.000000 
rthumb 4.664450 -33.910356 
lclavicle 0.000000 0.000000 
lhumerus -52.934216 44.945965 55.131514 
lradius 24.671047 
lwrist -61.354198 
lhand -10.440099 3.472899 
lfingers 0.000000 
lthumb 15.559762 32.866955 
rfemur 3.505767 -1.261631 14.831995 
rtibia 33.567097 
rfoot -11.870405 2.276709 
rtoes -14.013051 
lfemur -29.563479 -2.801393 -27.123695 
ltibia 24.797148 
lfoot -9.293487 3.007220 
ltoes -9.109411 
145
root -10.454846 16.769742 -12.783109 4.002779 -25.628438 9.209147
lowerback -11.939099 0.379592 -7.094143 
upperback 1.500063 1.794472 -2.511154 
thorax 8.208016 0.620558 1.654924 
lowerneck -1.286565 -7.754861 -5.495719 
upperneck 8.516539 -10.831538 8.410395 
head 3.505416 -5.221242 3.002013 
rclavicle 0.000000 0.000000 
rhumerus -36.626146 -29.263639 -77.680867 
rradius 34.686175 
rwrist 38.248113 
rhand -21.838489 -4.039417 
rfingers 0.000000 
rthumb 4.564765 -33.970240 
lclavicle 0.000000 0.000000 
lhumerus -52.769195 45.035365 55.123008 
lradius 24.579265 
lwrist -61.973539 
lhand -10.647567 3.710751 
lfingers 0.000000 
lthumb 15.360035 33.120186 
rfemur 3.009223 -1.715440 14.472266 
rtibia 34.905215 
rfoot -11.173743 2.348519 
rtoes -13.699085 
lfemur -29.272395 -2.780051 -27.334820 
ltibia 24.932482 
lfoot -9.561646 2.880222 
ltoes -9.043980 
146
root -10.473182 16.772895 -12.717064 3.915701 -25.634096 9.440807
lowerback -12.056472 0.310213 -7.344765 
upperback 1.516736 1.757450 -2.555842 
thorax 8.293028 0.589583 1.742191 
lowerneck -1.360187 -7.758336 -5.497041 
upperneck 8.587331 -10.835555 8.374372 
head 3.537279 -5.221445 2.986890 
rclavicle 0.000000 0.000000 
rhumerus -36.797913 -29.627387 -77.450124 
rradius 34.596579 
rwrist 38.256156 
rhand -21.801627 -4.097986 
rfingers 0.000000 
rthumb 4.600340 -34.028002 
lclavicle 0.000000 0.000000 
lhumerus -52.518460 45.089031 55.300525 
lradius 24.578444 
lwrist -61.932308 
lhand -10.513327 3.669364 
lfingers 0.000000 
lthumb 15.489214 33.068892 
rfemur 2.358622 -2.171366 14.044616 
rtibia 36.271753 
rfoot -10.450618 2.300347 
rtoes -13.712725 
lfemur -29.047314 -2.665175 -27.643400 
ltibia 25.005473 
lfoot -9.793134 2.621364 
ltoes -8.892960 
